<?xml version="1.0" standalone="no"?>
<!DOCTYPE svg PUBLIC "-//W3C//DTD SVG 20010904//EN"
 "http://www.w3.org/TR/2001/REC-SVG-20010904/DTD/svg10.dtd">
<svg version="1.0" xmlns="http://www.w3.org/2000/svg"
 width="274.000000pt" height="44.000000pt" viewBox="0 0 274.000000 44.000000"
 preserveAspectRatio="xMidYMid meet">

<g transform="translate(0.000000,44.000000) scale(0.100000,-0.100000)"
fill="#000000" stroke="none">
<path d="M129 412 c-158 -82 -155 -315 5 -390 25 -12 48 -22 51 -22 3 0 5 13
5 29 0 24 -7 34 -39 52 -77 43 -103 142 -59 221 24 43 80 78 123 78 21 0 25 5
25 30 0 26 -3 30 -29 30 -16 0 -53 -13 -82 -28z"/>
<path d="M270 410 c0 -23 8 -33 42 -52 128 -72 92 -276 -52 -295 -37 -5 -40
-8 -40 -36 0 -29 1 -30 45 -25 130 15 218 163 175 293 -16 49 -85 117 -132
132 -38 11 -38 11 -38 -17z"/>
<path d="M2670 235 c0 -74 4 -135 9 -135 15 0 21 42 21 158 0 93 -3 112 -15
112 -13 0 -15 -22 -15 -135z"/>
<path d="M494 337 c-2 -7 -3 -60 -2 -118 l3 -104 55 3 c58 4 90 16 90 33 0 11
-32 8 -97 -8 -23 -5 -23 -4 -23 101 0 66 -4 106 -10 106 -6 0 -13 -6 -16 -13z"/>
<path d="M1342 328 c5 -15 28 -18 29 -3 0 6 -7 12 -17 13 -10 3 -15 -1 -12
-10z"/>
<path d="M2380 300 c0 -25 -4 -30 -25 -30 -14 0 -25 -4 -25 -9 0 -5 11 -12 25
-15 21 -5 25 -13 26 -44 1 -20 2 -48 3 -61 1 -13 7 -26 14 -28 9 -4 12 13 12
61 0 62 2 66 25 72 14 3 25 10 25 15 0 5 -11 9 -25 9 -21 0 -25 5 -25 30 0 20
-5 30 -15 30 -10 0 -15 -10 -15 -30z"/>
<path d="M245 300 c-11 -4 -32 -5 -47 -3 l-28 6 0 -96 c0 -56 4 -99 10 -102
18 -11 40 16 40 50 0 34 16 45 68 45 20 0 22 5 22 49 0 58 -16 71 -65 51z"/>
<path d="M1852 153 c2 -87 7 -128 15 -130 8 -3 13 11 15 39 3 40 5 43 30 40
55 -7 91 62 66 126 -13 35 -17 37 -56 36 -23 0 -42 3 -42 8 0 4 -7 8 -15 8
-13 0 -15 -18 -13 -127z m98 68 c14 -28 13 -46 -8 -71 -13 -17 -24 -21 -40
-16 -17 6 -22 15 -22 45 0 20 5 42 12 49 18 18 46 14 58 -7z"/>
<path d="M693 255 c-50 -35 -35 -125 22 -139 32 -8 91 9 99 29 8 23 -11 27
-39 9 -28 -18 -75 -12 -75 10 0 7 21 21 46 31 25 9 48 24 51 31 15 39 -61 59
-104 29z m77 -21 c0 -8 -71 -36 -78 -30 -11 12 22 36 49 36 16 0 29 -2 29 -6z"/>
<path d="M862 250 c-63 -59 -13 -168 59 -130 15 8 24 8 34 0 19 -16 27 3 14
37 -6 15 -8 44 -5 64 5 28 2 38 -10 43 -31 12 -71 6 -92 -14z m78 -49 c0 -64
-54 -85 -74 -29 -12 33 14 68 51 68 20 0 23 -5 23 -39z"/>
<path d="M1010 190 c0 -47 4 -80 10 -80 6 0 10 20 10 45 0 66 59 118 73 64 7
-27 27 -15 27 17 0 30 -24 41 -61 27 -17 -7 -31 -7 -35 -2 -15 26 -24 1 -24
-71z"/>
<path d="M1164 256 c-9 -23 0 -141 11 -139 6 1 13 20 16 42 5 42 32 81 56 81
9 0 13 -15 13 -52 0 -57 13 -89 29 -73 5 6 6 38 2 74 -7 78 -25 95 -71 69 -25
-14 -30 -15 -30 -3 0 19 -19 20 -26 1z"/>
<path d="M1340 189 c0 -60 3 -80 13 -77 8 3 13 31 15 81 2 64 0 77 -13 77 -12
0 -15 -15 -15 -81z"/>
<path d="M1420 189 c0 -60 3 -80 13 -77 6 3 13 22 14 43 3 42 26 85 47 85 18
0 26 -22 26 -75 0 -44 15 -69 25 -42 3 7 2 42 -2 78 -7 57 -11 64 -31 67 -13
2 -32 -4 -42 -13 -16 -14 -18 -14 -23 0 -15 39 -27 10 -27 -66z"/>
<path d="M1602 250 c-44 -42 -38 -109 13 -132 21 -9 28 -8 45 7 19 18 20 17
20 -6 0 -44 -27 -71 -68 -67 -46 4 -55 -19 -10 -27 49 -9 84 8 96 47 16 53 23
170 11 185 -18 20 -82 16 -107 -7z m84 -42 c-7 -36 -32 -68 -53 -68 -7 0 -18
11 -25 25 -16 36 12 75 53 75 30 0 31 -2 25 -32z"/>
<path d="M2052 263 c-22 -9 -44 -63 -37 -94 7 -31 39 -59 68 -59 30 0 67 45
67 82 0 61 -44 93 -98 71z m66 -65 c2 -28 -1 -39 -17 -47 -41 -22 -70 18 -48
65 8 19 17 24 36 22 22 -3 26 -9 29 -40z"/>
<path d="M2192 193 c3 -88 20 -101 28 -23 5 48 19 69 46 70 7 0 14 -9 17 -21
7 -27 27 -15 27 17 0 30 -24 41 -61 27 -17 -7 -31 -7 -35 -2 -16 27 -25 2 -22
-68z"/>
<path d="M2512 250 c-63 -59 -13 -168 59 -130 15 8 24 8 34 0 19 -16 27 3 14
37 -6 15 -8 44 -5 64 5 28 2 38 -10 43 -31 12 -71 6 -92 -14z m78 -49 c0 -64
-54 -85 -74 -29 -12 33 14 68 51 68 20 0 23 -5 23 -39z"/>
</g>
</svg>
